# xmcd
#
# Track frame offsets:
#	150
#	16765
#	29498
#	46248
#	58787
#	71073
#	85198
#	99211
#	108965
#	117869
#	130545
#	143732
#	157108
#	179608
#	193042
#	206451
#	224163
#	236495
#	250598
#	264309
#	279210
#	291989
#	305602
#	318084
#	332031
#
# Disc length: 4664 seconds
#
# Revision: 0
# Processed by: cddbd v1.5.2PL0 Copyright (c) Steve Scherf et al.
# Submitted via: EasyCDDAExtractor 16.0.4.1
#
DISCID=67123619
DTITLE=Various Artist - The Ultimate Blues Album CD 1
DYEAR=1900
DGENRE=Soul
TTITLE0=Albert Ammons - Boogie Woogie Blues
TTITLE1=Howlin' Wolf - I Got A Woman
TTITLE2=Muddy Waters - Sad, Sad Day
TTITLE3=T-Bone Walker - Blues Is A Woman
TTITLE4=Sonny Terry - Whoopin' The Blues
TTITLE5=John Lee Hooker - Boogie Chillin'
TTITLE6=Memphis Slim - Grinder Man Blues
TTITLE7=Bo Diddley - Hey Bo Diddley
TTITLE8=Ray Charles  - All To Myself Alone
TTITLE9=Lonnie Johnson - Blues In G
TTITLE10=Albert "Big Boy" Crudup - That's All Right Mama
TTITLE11=Big Bill Broonzy - Wee Wee Hours
TTITLE12=BB King - The Thrill Is Gone
TTITLE13=Sonny Boy Williamson - Better Cut That Out
TTITLE14=Bessie Smith - Nobody Knows You When You're Down And Out
TTITLE15=John Mayall - Mama Talk To  Your Daughter
TTITLE16=Roy Milton - Big Fat Mama
TTITLE17=Ray Charles - Kiss Me Baby
TTITLE18=Big Joe Turner - Back Breaking Blues
TTITLE19=Billy Holiday - Loveless Love
TTITLE20=Willie Mae "Big Mama" Thornton - Hound Dog
TTITLE21=John Lee Hooker - Hobo Blues
TTITLE22=Ma Rainey - Big Feeling Blues
TTITLE23=Sonny Terry - All Alone Blues
TTITLE24=Mike Bloomfield - Hully Gully
EXTD=
EXTT0=
EXTT1=
EXTT2=
EXTT3=
EXTT4=
EXTT5=
EXTT6=
EXTT7=
EXTT8=
EXTT9=
EXTT10=
EXTT11=
EXTT12=
EXTT13=
EXTT14=
EXTT15=
EXTT16=
EXTT17=
EXTT18=
EXTT19=
EXTT20=
EXTT21=
EXTT22=
EXTT23=
EXTT24=
PLAYORDER=
